<svg width="28" height="29" fill="none" xmlns="http://www.w3.org/2000/svg">
      <path
        d="M27.106 11.409v14.718c0 1.141-.925 2.066-2.066 2.066H3.46a2.065 2.065 0 0 1-2.065-2.066V11.715c0-.721.376-1.39.993-1.765l13.616-8.272a2.065 2.065 0 0 1 2.533.305L26.5 9.948c.387.387.605.913.605 1.46Z"
        fill="#4468E8" />
      <path
        d="M14.25 28.193H3.459a2.065 2.065 0 0 1-2.065-2.066V11.715c0-.721.376-1.39.993-1.765l13.616-8.272a2.065 2.065 0 0 1 2.533.305L26.5 9.948c.387.387.605.913.605 1.46v14.72c0 1.14-.925 2.065-2.066 2.065h-2.718m-8.072 0v-8.399c0-1.14.924-2.065 2.065-2.065h3.941c1.141 0 2.066.924 2.066 2.065v8.399m-8.072 0h8.072"
        stroke="#fff" stroke-width="1.033" stroke-linejoin="round" />
    </svg>