<svg xmlns="http://www.w3.org/2000/svg" data-name="Layer 1" width="318.32838" height="343.16683" viewBox="0 0 318.32838 343.16683" xmlns:xlink="http://www.w3.org/1999/xlink"><path d="M672.17614,305.49942c.04322-.05807.08624-.11754.12946-.17591C672.16685,305.48427,672.09192,305.57455,672.17614,305.49942Z" transform="translate(-440.83581 -278.41658)" fill="#a0fff0"/><path d="M714.95129,341.23253A228.38909,228.38909,0,0,0,704.19555,319.459c-6.25358-10.15006-13.79205-21.79746-21.76757-21.33547a10.27872,10.27872,0,0,0-7.95007,4.374c-.76867.89692-1.46827,1.87391-2.17231,2.826.12663-.14683.30557-.35192.49319-.57408-.83128,1.07313-1.62843,2.22533-2.365,3.346-4.68675,7.17-8.97321,14.60374-13.87526,21.6364-6.42929,9.54416-19.52093,26.72616-20.76,28.31359C624.543,372.952,612.27694,387.48983,604.644,404.688c7.49525-9.49045,16.35072-17.68509,25.348-25.73887-5.63114,7.49272-11.316,14.946-16.95237,22.43415q7.32186-5.62038,14.4145-11.5336c15.12622-12.00983,28.48809-25.95932,42.45666-39.24576,4.97011-4.63959,14.55123-13.80942,16.77545-15.29859.29406-.0816.593-.14713.89348-.20631a14.80243,14.80243,0,0,1,1.71952-.0314c.01636.01757.03029.03716.04645.05483,2.72852,3.9611,5.10037,8.15022,7.66853,12.21422,2.35328,3.7972,5.27164,8.27018,10.30739,8.07589C714.83921,355.464,718.55028,347.01109,714.95129,341.23253Z" transform="translate(-440.83581 -278.41658)" fill="#a0fff0"/><path d="M653.01954,460.43068c-2.92058,1.11474-5.5661,2.84172-8.38893,4.17761-3.31543,1.66973-4.1463,1.77677-9.5266,4.09106a14.23491,14.23491,0,0,0-2.62774,1.84473c-3.87425,3.54425-1.35517,9.0337-1.47089,13.55283.044,1.28822.0515,2.57634.04564,3.86446-.67294,1.334-1.332,2.6747-2.01014,4.00583-1.47816,3.08792-3.68481,6.0592-3.81972,9.58355.48531,8.28311,7.347,8.98352,14.093,8.646,6.19885-.22135,12.77336-.07948,18.52021-2.68783,4.76088-2.42547,5.73333-7.83283,5.74807-12.71064.292-4.76774.634-9.5373.66809-14.31574C664.13316,473.64674,664.3218,458.73369,653.01954,460.43068Z" transform="translate(-440.83581 -278.41658)" fill="#a0fff0"/><path d="M753.35981,398.64919c-3.23141-11.80534-8.93121-22.76325-14.0542-33.8287-6.68013-13.22777-13.37561-26.542-21.79787-38.76568a131.01282,131.01282,0,0,0-17.7069-21.32c-5.88682-5.51632-12.38417-10.316-18.767-15.243q.48078-.93626.95872-1.87371-.63618.816-1.27317,1.63125-1.9028-1.47109-3.78641-2.964c1.04011,1.22389,2.1196,2.4599,3.21263,3.69945q-.24145.309-.48249.61821a496.21651,496.21651,0,0,1-33.09487,38.71934Q624.24,354.62172,601.28491,379.35274c-8.40429,9.68322-18.35319,18.28169-24.838,29.46034-.58549,1.14463-1.12271,2.30521-1.6363,3.474-21.69911.78483-43.41377-.44866-65.07672-1.85554-7.841-.63366-15.60043-2.05224-23.45033-2.57482-7.97592-.429-15.96618-.04232-23.94735.15561.11007-.61235.21953-1.2241.33546-1.83887.02989-.07968.04443-.12068.06806-.1846.03413-.06281.07169-.123.10764-.18469.19227-.19954.49037-.50784.87329-.87208.83552-.94024,6.04395-4.36684,10.85753-6.89249q37.35761-19.90437,75.2704-38.72429c-.556,7.561-1.16755,15.11744-1.94693,22.65934,2.48738-8.249,4.667-16.5858,6.61631-24.97716,2.76164-1.36709,5.5144-2.751,8.28008-4.10975q9.23071-4.48084,18.41095-9.07319c-1.65529,8.93071-3.06742,17.90756-4.3214,26.91016q-.45472,2.92023-.86946,5.84683.83069-2.301,1.65691-4.60385,5.42907-15.93639,10.9064-31.85784c20.8547-10.54318,41.49128-21.52774,61.76473-33.13819,9.52054-5.60478,19.08389-11.21844,27.8711-17.94017-5.73959,2.76033-13.274,6.21541-17.9943,8.14264-21.64195,9.09379-43.66682,17.29419-65.06056,26.9663-.44331.202-.88319.41059-1.32629.61306q1.45716-4.26258,2.917-8.524c2.3874-8.72965,9.73583-25.96376,3.09347-33.53939-3.189-2.90584-7.89312-1.81868-11.8417-2.40407-6.25035-.50157-8.04237-1.07161-13.38449-1.63923a31.45919,31.45919,0,0,0-12.48838.93095c-4.87095,1.26146-6.826,4.72038-7.33126,9.49913-2.00953,11.66356-2.3252,23.49062-2.69621,35.29283q-.6374,10.45992-1.29014,20.92165c-18.73126,9.26848-37.32356,18.82174-55.86377,28.45931-7.0277,3.69835-13.97139,7.55463-21.02515,11.20309-6.50624,3.43327-13.28836,6.6873-18.80336,11.6364-5.75373,5.22872-4.98182,13.82588-6.38466,20.88227-2.55867,19.15043-4.27959,38.37074-5.37383,57.6568-.84259,11.37485-2.50111,22.69983-2.52777,34.123,1.26267,37.43879,2.781,74.87424,3.55172,112.33121,5.63719-36.46341,8.23242-73.26137,8.975-110.13062.09189-10.27417,1.26691-20.4841,2.16928-30.70676.81957-9.7226,1.072-19.47832,1.68841-29.21344,1.58985-16.633,2.64127-29.59919,5.02161-43.00277,7.82,1.22319,15.68768,2.17554,23.43538,3.8067,7.65844,1.72466,15.14056,4.15751,22.81354,5.82976,22.23168,4.13681,40.09834,7.41941,61.75685,7.82385-2.75639,11.10129-3.87931,22.71568-5.96922,33.89544-3.04076,19.25142-6.61934,38.46285-7.3256,57.98479-1.13645,32.332-2.693,64.64724-4.40482,96.95314,5.00869-23.38448,9.40421-46.91226,12.57261-70.6212,2.32338-16.66276,3.5711-33.452,5.6905-50.13924.84744-5.87954,4.55791-29.41479,6.43919-41.2475,1.01-7.20715,3.09064-18.88526,5.10643-26.89834.41908-.01263.82381-.01636,1.24632-.03111,17.694.76716,34.61363-4.76683,51.83743-7.91412,25.77068-4.45752,51.66981-8.08952,77.347-13.08972,8.70925-1.36851,17.39911-2.8492,26.05525-4.5166.17409.565.354,1.13533.5142,1.6878,3.78559,16.67467,4.67786,29.321,5.78765,53.02973.85087,20.24123-.0311,40.50378.42069,60.75461q.15,43.74154,4.01684,87.35505.196,2.25027.39928,4.49933c2.61461-27.849,4.90043-55.72866,7.10567-83.61258q2.26359-31.46276,2.06729-63.0482C759.02709,440.15239,758.12008,419.04756,753.35981,398.64919Zm-192.5911-73.18442c2.23613-16.37223,2.42678-19.69583,5.35-35.66313.35182-.09674.72868-.19247,1.06172-.25589,4.45025-.52106,8.92494.1231,13.33844.70576a91.95467,91.95467,0,0,0,11.58278.7913c.09452,5.68788-3.2302,17.35205-5.29184,26.89066-.94316,3.75126-1.81524,7.51686-2.6449,11.29084q-13.255,6.18916-26.39091,12.62925Q559.39324,333.68089,560.76871,325.46477Zm136.2818,74.23766c-21.96893,1.3685-44.05783,1.60237-65.86155,4.89175-10.93973,1.62943-21.63912,4.5476-32.5429,6.36708-5.55924.34415-7.29854.33334-9.91194.504,4.57305-6.69669,10.10946-11.23389,17.21048-19.30615a486.39511,486.39511,0,0,0,34.83276-41.24074c14.21031-19.51326,28.9728-38.78851,39.77035-60.48014,6.17683,6.98408,12.87574,14.10065,17.3058,20.3196,12.76325,17.681,21.56682,41.404,25.75351,51.134,2.31309,6.34517,10.43422,23.37338,14.88791,37.3377C724.67925,399.15471,710.84922,398.90165,697.05051,399.70243Z" transform="translate(-440.83581 -278.41658)"/><path d="M658.60847,542.99669c-10.58286,1.571-25.99809,5.96407-31.5854,15.81188-2.22078,4.52488-2.347,9.71634-2.85858,14.64585a120.91773,120.91773,0,0,0,.06947,20.7717c.03232,4.032,5.40776,5.45885,7.0574,1.62257a10.21117,10.21117,0,0,0,.26235-3.86739c.292-3.38046.77291-9.2181,1.31821-12.86747.086-.597.164-1.23137.18621-1.44454.20661-1.52785.06907-.77645.81653-5.63265.78827-4.63232,1.37719-7.78789,2.48476-9.07712,1.01425-2.078,10.35423-7.23381,17.06324-9.273,1.86432-.5967,3.73127-1.22925,5.63538-1.69538,2.47041,4.27848,3.93242,19.05147,5.10764,29.31139.6685,5.99326,1.34305,11.9859,2.11334,17.96724.206-1.79687.41928-3.59555.60872-5.395,1.03122-10.33445,1.72315-20.71807,1.8108-31.10543C668.30148,556.46863,668.78356,542.57681,658.60847,542.99669Z" transform="translate(-440.83581 -278.41658)"/><path d="M676.07463,453.55041c-2.01256-16.48361-12.22462-11.28791-23.338-7.13909-4.1566,1.74284-8.44589,3.31209-12.27975,5.71141-2.00751,1.425-4.14307,2.97573-4.92992,5.42008-.87288,2.743-.73211,5.70344-1.23924,8.52567-.74262,5.48592-2.548,17.33166-3.418,24.97666,3.03954-9.25445,6.16593-18.488,8.76156-27.87947.20782-.86834.69273-2.382.86723-2.88262.36393-.611.307-.66971.7206-1.03607,3.48224-2.13566,3.6008-1.9235,7.17251-3.18688,5.94054-1.93925,11.95217-3.68249,18.04257-5.08734,1.54421,3.53909,1.42384,11.45261,1.24813,19.44065-.15309,6.0189-.188,12.048-.5766,18.05711a4.50085,4.50085,0,0,1-.61417,2.29046c-1.43031,1.4093-5.89248,1.50462-10.45179,1.93157a129.13345,129.13345,0,0,1-12.90826.68759c1.99438.54287,4.00694,1.026,6.03849,1.4096,4.362.71222,8.76135,1.25863,13.172,1.55441,3.5699.30435,7.81981-.43837,9.54518-3.97181,2.35206-6.31114,2.51807-13.2719,3.53112-19.89366C675.97082,466.202,676.94751,459.83641,676.07463,453.55041Z" transform="translate(-440.83581 -278.41658)"/></svg>